# xmcd CD database file generated by LOLA_Freedb v0.9beta0
# 
# Track frame offsets:
#      150
#      13542
#      29754
#      45774
#      68142
#      102333
#      120303
#      141504
#      202266
# 
# Disc length: 2833 seconds
# 
# Revision: 0 
# Processed by: cddbd v1.5.2PL0 Copyright (c) Steve Scherf et al.
# Submitted via: LOLA_Freedb v0.9beta0
# 
DISCID=7c0b0f09
DTITLE=Hired Help Band - Gangbusters
DYEAR=1982
DGENRE=
TTITLE0=Gangbusters
TTITLE1=Überdosis Kraft
TTITLE2=Der Alte Torero
TTITLE3=Do You Wanna Jam
TTITLE4=Stormy Monday
TTITLE5=Congratulation
TTITLE6=Magic Man
TTITLE7=Beaver Feaver
TTITLE8=Peace In The Valley
EXTD=
EXTT0=
EXTT1=
EXTT2=
EXTT3=
EXTT4=
EXTT5=
EXTT6=
EXTT7=
EXTT8=
PLAYORDER=
